<?xml version="1.0" standalone="no"?>
<!DOCTYPE svg PUBLIC "-//W3C//DTD SVG 20010904//EN"
 "http://www.w3.org/TR/2001/REC-SVG-20010904/DTD/svg10.dtd">
<svg version="1.0" xmlns="http://www.w3.org/2000/svg"
 width="300.000000pt" height="666.000000pt" viewBox="0 0 300.000000 666.000000"
 preserveAspectRatio="xMidYMid meet">
<metadata>
Created by potrace 1.10, written by Peter Selinger 2001-2011
</metadata>
<g transform="translate(0.000000,666.000000) scale(0.100000,-0.100000)"
fill="#000000" stroke="none">
<path d="M233 6646 c2 -6 15 -43 27 -83 13 -40 28 -69 33 -66 6 3 7 1 3 -5 -9
-15 38 -175 91 -302 3 -8 8 -24 10 -35 9 -48 26 -87 33 -75 5 8 9 7 13 -4 4
-9 2 -16 -3 -16 -6 0 -10 -4 -10 -10 0 -5 6 -10 13 -10 8 0 22 -19 32 -42 45
-104 54 -127 74 -192 13 -38 31 -87 42 -107 10 -21 19 -51 19 -67 0 -16 6 -45
14 -63 24 -59 29 -82 17 -75 -14 9 -14 5 2 -30 7 -16 17 -30 24 -31 16 -3 22
45 7 58 -8 6 -14 28 -14 48 0 27 -3 32 -10 21 -9 -13 -10 -13 -11 0 -1 8 -4
26 -5 40 -2 14 -8 63 -13 110 -9 80 -62 249 -110 355 -10 22 -33 81 -51 130
-20 58 -43 101 -63 120 l-30 30 26 -35 c33 -45 79 -167 75 -200 -1 -15 8 -40
23 -60 26 -35 101 -241 115 -315 13 -69 -13 -29 -47 73 -18 53 -61 165 -97
247 -78 181 -102 250 -101 284 0 14 -9 53 -21 86 -12 33 -32 98 -44 145 -19
74 -25 85 -45 86 -12 1 -20 -4 -18 -10z"/>
<path d="M1 6381 c-2 -27 24 -96 42 -114 19 -19 19 -18 12 3 -13 42 -54 125
-54 111z"/>
<path d="M1 6139 c-1 -8 10 -42 22 -75 24 -59 38 -89 188 -402 44 -90 79 -165
79 -167 0 -2 28 -61 61 -132 34 -70 77 -166 95 -213 33 -82 34 -89 34 -227 0
-78 -4 -144 -9 -148 -5 -3 -6 -17 -2 -33 5 -15 4 -37 0 -50 -6 -15 -5 -22 4
-22 8 0 8 -3 2 -8 -13 -9 -13 -75 0 -84 6 -5 4 -8 -5 -8 -13 0 -13 -1 0 -10
10 -7 11 -10 2 -10 -9 0 -8 -7 4 -25 15 -24 15 -25 -2 -26 -18 0 -17 -1 1 -8
19 -8 18 -9 -5 -13 -24 -5 -23 -5 4 -7 l29 -1 -5 313 -6 312 -55 125 c-51 116
-84 188 -199 430 -25 52 -57 120 -71 150 -14 30 -52 111 -84 180 -32 69 -64
136 -70 150 -7 15 -12 19 -12 9z"/>
<path d="M65 6080 c8 -16 20 -42 26 -56 5 -15 12 -24 15 -21 6 5 -43 107 -51
107 -3 0 1 -13 10 -30z"/>
<path d="M440 6029 c0 -12 95 -295 126 -377 43 -109 57 -118 18 -11 -15 41
-49 142 -77 224 -41 125 -67 188 -67 164z"/>
<path d="M240 5824 c0 -13 39 -94 45 -94 4 0 -33 91 -41 99 -2 2 -4 0 -4 -5z"/>
<path d="M2980 5680 c-8 -30 -14 -63 -12 -73 4 -33 -225 -644 -284 -759 -13
-25 -13 -32 -3 -39 18 -11 -16 -49 -43 -49 -15 0 -18 -5 -13 -19 3 -11 1 -22
-5 -26 -5 -3 -10 -14 -10 -25 0 -10 -6 -20 -13 -23 -8 -3 -24 -51 -37 -108
-13 -57 -29 -118 -37 -136 -7 -18 -13 -35 -13 -39 0 -17 47 47 68 92 12 27 16
40 7 30 -13 -17 -15 -17 -15 -3 0 9 4 26 9 39 5 13 14 43 21 68 6 25 20 56 31
70 15 20 13 9 -11 -59 -17 -46 -28 -86 -25 -89 3 -3 6 -3 8 -1 11 14 67 149
73 174 4 17 13 41 20 55 7 14 20 57 29 95 9 39 22 84 29 100 31 70 116 297
116 308 0 7 8 26 18 42 10 17 21 41 24 55 3 14 25 74 48 135 24 63 38 111 32
113 -7 2 -7 12 -1 32 6 16 9 43 7 62 -3 31 -4 30 -18 -22z"/>
<path d="M311 5546 c-1 -5 11 -34 25 -65 15 -31 46 -98 70 -148 43 -92 70
-132 35 -50 -37 85 -129 272 -130 263z"/>
<path d="M2990 5439 c0 -17 -11 -58 -24 -92 -47 -118 -114 -303 -126 -346 -7
-28 -18 -45 -30 -48 -20 -5 -47 -63 -29 -63 5 0 9 5 9 11 0 5 4 8 9 5 5 -3 11
3 14 14 3 12 14 20 26 20 24 0 26 -9 9 -45 -8 -17 -17 -24 -29 -20 -14 5 -21
-5 -35 -47 -22 -68 -40 -107 -88 -191 -21 -37 -36 -70 -33 -73 3 -3 13 8 22
25 19 38 29 40 21 4 -5 -23 -4 -25 4 -11 6 10 10 26 8 35 -2 10 2 17 8 16 7
-1 16 10 22 25 22 59 25 68 27 82 4 30 17 60 26 60 5 0 14 10 20 23 5 12 20
37 34 55 21 29 23 41 19 93 -2 34 0 58 5 55 5 -3 32 63 61 147 38 110 54 172
58 225 2 39 2 72 -2 72 -3 0 -6 -14 -6 -31z"/>
<path d="M695 5451 c4 -7 14 -37 21 -65 l13 -51 -5 50 c-3 28 -13 57 -21 65
-11 11 -14 11 -8 1z"/>
<path d="M671 5402 c-1 -12 3 -30 9 -40 8 -15 47 -114 64 -165 3 -10 10 -16
15 -12 5 3 9 -9 8 -26 -1 -18 3 -34 11 -36 31 -11 0 95 -37 125 -14 11 -14 12
1 6 13 -4 15 -1 11 15 -3 12 -9 21 -14 21 -5 0 -9 9 -9 19 0 11 -3 21 -7 23
-5 2 -18 23 -30 48 -17 34 -22 40 -22 22z"/>
<path d="M1495 5275 c-5 -2 -45 -9 -87 -16 -43 -7 -78 -16 -78 -20 0 -5 -8 -6
-18 -4 -10 1 -35 -6 -57 -16 -21 -10 -43 -19 -48 -19 -5 0 -28 -13 -51 -28
-22 -15 -56 -34 -73 -41 -18 -7 -33 -17 -33 -22 0 -5 -7 -9 -15 -9 -16 0 -130
-74 -141 -91 -10 -16 6 -10 49 20 89 60 286 161 363 185 92 29 258 50 324 40
25 -4 69 -15 99 -25 63 -22 61 -22 61 -10 0 19 -145 59 -215 59 -38 0 -74 -1
-80 -3z"/>
<path d="M2958 5152 c-21 -53 -36 -98 -34 -100 10 -9 77 147 74 170 -2 19 -13
1 -40 -70z"/>
<path d="M480 5177 c0 -4 7 -21 15 -37 9 -17 12 -30 8 -30 -5 0 0 -5 9 -11 30
-17 38 -78 48 -374 13 -397 13 -386 21 -390 3 -3 9 8 12 23 3 15 16 43 30 63
17 26 26 56 31 110 4 41 14 97 23 125 17 55 20 42 -45 160 -7 12 -19 40 -28
61 l-15 38 21 -24 c11 -13 20 -29 20 -37 0 -7 5 -16 12 -20 13 -9 17 -18 -60
151 -56 123 -102 210 -102 192z m181 -504 c-23 -89 -33 -151 -27 -162 5 -7 -1
-11 -13 -11 -21 0 -25 11 -22 57 1 11 -2 24 -8 27 -6 4 -7 15 -2 28 4 12 5 38
1 59 -4 20 -8 75 -9 121 l-1 83 45 -82 c42 -76 45 -86 36 -120z"/>
<path d="M1541 5159 c-141 -28 -342 -264 -435 -511 -65 -176 -96 -393 -76
-538 20 -141 90 -384 120 -414 4 -4 -7 36 -26 89 -31 91 -65 247 -79 376 -7
60 12 236 26 245 5 3 9 14 9 26 0 43 104 264 149 318 17 19 57 67 90 106 68
81 159 147 234 169 73 22 210 20 283 -5 140 -45 211 -106 298 -255 58 -100 65
-118 42 -109 -8 3 -17 0 -21 -7 -6 -8 -1 -10 18 -7 25 5 43 -13 38 -36 -1 -4
4 -14 10 -22 7 -8 12 -57 14 -117 1 -70 7 -113 18 -137 17 -35 17 -35 12 -5
-2 17 -7 71 -10 120 -7 106 -24 195 -38 195 -5 0 -7 7 -4 15 8 19 -21 102 -69
199 -48 98 -152 207 -239 253 -109 57 -243 76 -364 52z m279 -42 c87 -31 168
-84 220 -144 52 -62 180 -296 150 -278 -6 3 -10 12 -10 18 0 25 -117 193 -161
230 -62 53 -173 106 -252 120 -87 15 -188 -2 -277 -45 -110 -54 -272 -238
-356 -405 -24 -48 -44 -81 -44 -74 0 27 88 198 128 248 23 29 39 58 36 66 -7
19 71 121 143 187 83 76 143 99 263 99 74 1 109 -4 160 -22z"/>
<path d="M560 5091 c0 -13 38 -91 45 -91 4 0 -33 91 -41 99 -2 2 -4 -1 -4 -8z"/>
<path d="M785 5073 c3 -16 11 -32 17 -38 8 -7 9 -2 4 15 -3 14 -6 31 -6 38 0
6 -5 12 -11 12 -7 0 -9 -10 -4 -27z"/>
<path d="M811 5005 c0 -11 6 -33 14 -50 12 -26 13 -27 14 -8 1 12 -4 25 -9 28
-6 4 -8 10 -6 14 3 4 1 13 -5 21 -7 12 -9 11 -8 -5z"/>
<path d="M2980 4970 c0 -5 -9 -10 -21 -10 -16 0 -19 -4 -14 -20 5 -14 2 -20
-9 -20 -9 0 -16 -6 -16 -13 0 -7 -10 -17 -22 -22 -16 -7 -25 -22 -30 -54 -4
-25 -12 -47 -17 -50 -5 -4 -13 -19 -16 -34 -4 -15 -11 -30 -16 -33 -5 -3 -9
-12 -9 -21 0 -9 -7 -25 -17 -35 -13 -14 -14 -23 -5 -40 8 -18 11 -19 11 -5 1
11 9 17 24 17 14 0 18 3 10 8 -19 12 -12 52 9 52 12 0 18 8 18 24 0 29 16 42
48 37 12 -1 22 3 22 9 0 6 -4 9 -9 6 -5 -4 -16 -4 -24 -1 -19 8 -21 65 -2 65
20 0 56 41 53 59 -2 10 6 17 20 19 14 2 22 10 22 22 0 10 3 25 6 34 3 9 1 16
-5 16 -6 0 -11 -4 -11 -10z"/>
<path d="M759 4829 c-13 -18 -18 -29 -11 -25 8 5 12 0 12 -13 0 -11 -4 -23
-10 -26 -5 -3 -9 -16 -8 -28 1 -12 -2 -32 -6 -44 -4 -14 -3 -23 3 -23 11 0 16
18 26 95 4 28 11 58 17 68 17 33 1 29 -23 -4z"/>
<path d="M821 4778 c-27 -138 -28 -158 -15 -243 13 -80 58 -259 89 -355 8 -25
22 -67 30 -94 46 -144 129 -320 190 -401 119 -158 257 -266 383 -301 34 -10
62 -20 62 -23 0 -4 19 -5 42 -3 42 4 41 5 -42 29 -127 36 -213 86 -303 175
-43 43 -83 78 -88 78 -6 0 -8 10 -4 23 4 15 3 18 -3 9 -14 -20 -73 75 -150
241 -67 146 -73 163 -122 352 -16 61 -36 135 -45 165 -21 73 -27 205 -15 309
12 95 7 119 -9 39z"/>
<path d="M650 4811 c0 -14 42 -83 47 -77 5 5 -35 86 -42 86 -3 0 -5 -4 -5 -9z"/>
<path d="M2900 4798 c0 -4 8 -9 18 -9 56 -5 80 -3 75 4 -3 5 -18 7 -34 5 -16
-3 -29 -2 -29 2 0 4 -7 7 -15 7 -8 0 -15 -4 -15 -9z"/>
<path d="M970 4767 c0 -3 -9 -59 -20 -124 -11 -65 -19 -156 -18 -203 l1 -85 9
105 c4 58 15 149 23 204 9 54 13 101 10 104 -3 3 -5 3 -5 -1z"/>
<path d="M2328 4761 c-53 -3 -99 -9 -103 -13 -12 -12 15 -50 28 -40 16 13 223
34 268 27 22 -3 43 1 55 10 17 12 13 13 -41 10 -43 -3 -53 -2 -35 4 30 11 -18
11 -172 2z"/>
<path d="M1290 4738 c-37 -14 -15 -21 37 -12 26 4 51 7 56 6 4 -1 7 2 7 7 0
11 -70 10 -100 -1z"/>
<path d="M2931 4689 c4 -31 -2 -49 -16 -49 -8 0 -15 7 -15 16 0 8 -4 12 -10 9
-5 -3 -10 -13 -10 -21 0 -14 26 -19 54 -8 18 7 22 49 5 59 -6 4 -10 1 -8 -6z"/>
<path d="M1465 4678 c11 -8 38 -20 60 -27 22 -7 46 -15 53 -17 6 -3 12 -1 12
6 0 14 -51 36 -105 45 -36 6 -38 6 -20 -7z"/>
<path d="M1992 4623 c-13 -3 -21 -10 -19 -16 5 -14 29 -11 72 8 l30 13 -30 0
c-16 0 -40 -3 -53 -5z"/>
<path d="M2751 4545 c-6 -25 -18 -48 -26 -51 -8 -4 -15 -11 -15 -18 0 -7 -20
-44 -44 -84 -25 -39 -40 -74 -35 -77 5 -4 9 1 9 9 0 9 8 16 18 16 14 0 15 2 2
10 -13 8 -12 10 3 10 10 0 15 5 12 10 -3 6 -1 10 5 10 6 0 8 5 5 10 -3 6 0 17
7 25 7 8 24 28 38 45 13 17 34 30 46 30 12 0 27 6 34 14 10 13 7 13 -19 3 -17
-6 -33 -8 -37 -5 -10 11 6 28 27 28 10 0 19 4 19 9 0 6 -9 8 -20 6 -17 -3 -19
0 -14 21 3 13 4 24 1 24 -2 0 -10 -20 -16 -45z"/>
<path d="M2284 4490 c3 -41 9 -117 13 -168 4 -58 9 -88 15 -80 6 10 13 8 27
-9 29 -35 35 -27 9 9 -18 26 -25 56 -35 148 -13 125 -19 159 -29 169 -4 3 -4
-28 0 -69z"/>
<path d="M1317 4489 c-21 -3 -51 -5 -67 -4 -40 3 -38 -12 3 -20 17 -4 41 -14
52 -21 11 -8 29 -14 40 -14 19 1 19 1 2 14 -26 20 0 40 27 20 17 -12 21 -11
31 2 10 15 13 15 29 -1 9 -10 14 -20 11 -23 -3 -4 -10 0 -14 7 -6 10 -10 10
-16 2 -3 -7 -15 -9 -26 -6 -23 8 -26 -10 -3 -19 9 -3 31 -6 49 -6 28 0 35 5
43 30 12 33 24 32 74 -2 14 -10 34 -18 43 -18 26 0 3 24 -47 50 -33 17 -55 21
-117 18 -42 -1 -93 -5 -114 -9z"/>
<path d="M88 4473 c17 -2 47 -2 65 0 17 2 3 4 -33 4 -36 0 -50 -2 -32 -4z"/>
<path d="M737 4456 c-4 -10 -4 -23 0 -29 4 -7 9 -23 11 -37 2 -13 7 -30 13
-36 5 -6 6 -14 2 -17 -3 -4 -1 -12 5 -20 6 -7 13 -24 16 -37 3 -14 9 -38 12
-55 4 -16 12 -36 17 -44 6 -7 13 -20 14 -30 6 -29 9 -36 31 -76 28 -53 27 -41
-3 50 -32 94 -75 258 -76 288 0 21 -1 21 -9 2 -7 -18 -8 -17 -15 10 -4 17 -8
34 -9 39 -1 6 -5 2 -9 -8z"/>
<path d="M463 4453 c15 -4 18 -12 15 -39 -2 -18 1 -36 7 -38 5 -2 4 -5 -3 -5
-7 -1 -10 -5 -7 -11 3 -5 0 -10 -7 -10 -10 0 -10 -2 1 -9 18 -12 23 -41 8 -41
-8 0 -8 -3 -2 -8 14 -10 17 -32 5 -32 -6 0 -3 -11 6 -25 9 -14 12 -25 7 -25
-5 0 -10 -6 -10 -12 -1 -25 -8 -43 -23 -56 -11 -10 -11 -12 -1 -6 9 5 12 3 7
-4 -4 -7 -15 -12 -24 -12 -15 0 -15 -2 -2 -10 12 -8 12 -10 -5 -11 -20 0 -20
0 0 -9 18 -8 18 -9 -5 -10 -23 -1 -23 -2 -5 -10 11 -5 14 -9 7 -9 -7 -1 -10
-5 -7 -11 3 -5 2 -10 -4 -10 -5 0 -8 -9 -6 -20 3 -15 -3 -22 -22 -26 -13 -4
-21 -9 -16 -13 13 -9 11 -50 -2 -45 -6 3 -12 -1 -13 -8 -2 -22 -7 -43 -15 -55
-5 -7 -4 -13 2 -13 16 0 37 37 65 112 14 38 30 76 35 85 60 115 70 176 54 336
-6 64 -7 67 -32 66 -19 -1 -21 -3 -8 -6z"/>
<path d="M1973 4448 c-41 -14 -55 -41 -16 -32 21 6 25 4 20 -9 -5 -13 3 -17
40 -23 45 -7 63 2 75 37 5 14 48 -2 48 -17 0 -8 -12 -20 -27 -26 -23 -9 -25
-12 -10 -15 19 -5 89 27 94 43 9 32 -160 64 -224 42z"/>
<path d="M1312 4405 c34 -29 117 -42 176 -26 23 7 42 13 42 14 0 1 -33 1 -73
-1 -60 -3 -81 0 -115 17 -54 27 -64 26 -30 -4z"/>
<path d="M637 4375 c-4 -25 -4 -75 -2 -113 3 -37 10 -121 15 -187 5 -66 12
-194 16 -285 3 -91 8 -176 10 -190 13 -82 35 -272 44 -380 6 -69 15 -183 21
-254 11 -136 16 -159 29 -151 5 3 4 20 -1 38 -6 17 -12 102 -15 187 -5 195
-10 257 -24 345 -6 39 -13 88 -15 110 -2 22 -8 64 -14 94 -13 64 -14 224 -1
176 15 -58 80 -376 85 -415 2 -22 25 -141 65 -350 6 -30 18 -86 26 -125 9 -38
17 -79 19 -90 6 -40 16 -91 26 -128 6 -21 12 -52 14 -70 5 -37 8 -49 28 -137
9 -36 25 -117 36 -180 24 -132 28 -154 38 -195 4 -16 6 -33 5 -38 -1 -4 2 -26
7 -50 6 -23 13 -58 16 -77 3 -19 12 -64 20 -100 8 -36 21 -108 31 -160 9 -52
23 -122 31 -155 8 -33 17 -71 19 -85 9 -50 87 -369 130 -530 95 -360 111 -418
149 -545 27 -90 71 -253 80 -303 4 -19 13 -32 22 -32 10 0 13 6 9 17 -4 9 -16
53 -27 97 -31 123 -113 425 -163 604 -25 88 -64 235 -86 328 -22 93 -54 223
-70 289 -16 66 -36 154 -44 195 -49 250 -89 456 -116 605 -17 94 -42 220 -56
281 -53 244 -169 837 -213 1094 -5 30 -23 128 -40 218 -33 175 -63 386 -81
572 -7 63 -13 116 -15 118 -1 1 -5 -18 -8 -43z"/>
<path d="M2832 4395 c-14 -31 -15 -45 -3 -45 8 0 24 60 18 67 -2 2 -9 -8 -15
-22z"/>
<path d="M1574 4365 c-27 -24 -44 -44 -39 -45 12 0 99 80 93 86 -2 2 -26 -16
-54 -41z"/>
<path d="M2871 4373 c-1 -13 -7 -23 -13 -23 -9 0 -8 -4 2 -11 11 -7 12 -12 3
-15 -7 -3 -9 -12 -6 -20 8 -21 -17 -49 -28 -32 -7 10 -9 9 -9 -4 0 -22 14 -23
34 -3 16 16 32 95 23 117 -3 7 -6 3 -6 -9z"/>
<path d="M2005 4353 c16 -17 112 -34 137 -24 18 6 8 9 -42 13 -36 3 -74 9 -85
13 -14 5 -17 5 -10 -2z"/>
<path d="M1646 4268 c-32 -37 -56 -90 -56 -125 0 -7 13 -19 30 -28 33 -17 80
-20 80 -5 0 6 -9 10 -19 10 -11 0 -27 10 -35 22 -27 37 -19 71 25 122 26 30
35 46 26 46 -9 0 -32 -19 -51 -42z"/>
<path d="M2040 4199 c0 -19 -4 -21 -31 -15 -18 3 -45 0 -65 -9 -47 -19 -35
-39 17 -30 31 5 39 4 39 -8 0 -8 -10 -18 -22 -21 -22 -6 -22 -7 -4 -18 28 -16
76 39 76 87 0 19 -2 35 -5 35 -3 0 -5 -10 -5 -21z"/>
<path d="M2753 4190 c-9 -25 -9 -30 4 -30 11 0 14 -6 10 -21 -4 -16 -3 -18 8
-9 10 8 11 20 3 48 -13 47 -12 47 -25 12z"/>
<path d="M2970 4200 c0 -5 -5 -10 -11 -10 -7 0 -17 -7 -23 -16 -12 -15 -46
-10 -46 7 0 5 -3 9 -8 9 -4 0 -6 -19 -4 -43 3 -38 0 -47 -27 -73 -17 -16 -31
-34 -31 -41 0 -6 -6 -18 -12 -25 -18 -19 -46 -78 -54 -113 -3 -16 -13 -36 -22
-42 -9 -7 -11 -13 -4 -13 6 0 17 8 24 18 7 10 21 21 31 25 9 3 17 15 17 26 0
11 7 27 16 36 9 8 13 22 10 31 -9 22 11 54 29 48 28 -11 45 15 41 62 -5 49 9
64 58 64 21 0 26 5 26 24 0 13 6 27 13 29 7 3 5 6 -5 6 -10 1 -18 -3 -18 -9z"/>
<path d="M1718 4192 c-22 -4 -31 -31 -12 -39 8 -3 33 -3 54 0 29 4 40 1 40 -8
0 -13 30 -25 68 -25 15 0 22 6 22 20 0 11 -5 20 -11 20 -5 0 -7 -4 -4 -10 4
-6 -5 -10 -19 -10 -16 0 -26 6 -26 14 0 8 -5 18 -12 22 -16 10 -80 21 -100 16z"/>
<path d="M2312 4144 c20 -115 62 -291 77 -327 22 -50 41 -68 41 -39 0 11 7 22
15 26 26 10 16 26 -15 26 -25 0 -30 4 -30 25 0 18 5 25 20 25 11 0 20 5 20 10
0 6 -9 10 -20 10 -21 0 -45 34 -35 50 4 6 1 25 -5 44 -13 41 -6 60 27 75 20 9
31 8 56 -4 16 -8 31 -14 32 -13 1 2 8 14 15 28 13 24 12 25 -7 8 -17 -16 -22
-16 -39 -4 -13 10 -24 11 -37 5 -9 -6 -22 -7 -27 -4 -6 4 -13 -1 -16 -9 -11
-28 -22 -17 -28 29 -5 31 -14 48 -28 56 -19 10 -20 9 -16 -17z"/>
<path d="M2801 4155 c-18 -86 -19 -97 -4 -82 9 9 13 28 10 53 -2 21 -5 35 -6
29z"/>
<path d="M2705 4060 c-3 -6 -4 -23 -1 -38 3 -15 9 -45 12 -67 11 -71 16 -52 9
30 -8 86 -9 92 -20 75z"/>
<path d="M1762 4029 c-18 -12 -30 -24 -27 -27 5 -6 95 36 95 44 0 11 -39 1
-68 -17z"/>
<path d="M1880 4040 l-45 -7 50 -1 c28 0 59 3 70 8 18 8 18 9 -5 8 -14 -1 -45
-4 -70 -8z"/>
<path d="M892 3982 c12 -28 23 -50 25 -48 6 5 -20 71 -33 86 -8 8 -5 -8 8 -38z"/>
<path d="M2550 3964 c0 -25 4 -43 9 -40 5 4 12 0 14 -6 8 -18 8 43 1 70 -11
38 -24 24 -24 -24z"/>
<path d="M2910 3995 c-10 -12 -10 -18 0 -30 19 -23 30 -18 30 15 0 33 -11 38
-30 15z"/>
<path d="M2246 3947 c-9 -30 -16 -60 -16 -66 0 -6 -13 -52 -30 -103 -16 -51
-27 -94 -25 -97 3 -2 5 1 5 7 0 19 20 14 39 -9 16 -20 16 -19 18 23 1 24 8 99
16 168 9 69 14 126 12 128 -2 2 -10 -21 -19 -51z"/>
<path d="M2938 3918 c-14 -23 -13 -58 2 -58 4 0 13 7 20 15 7 8 19 15 26 15 8
0 14 5 14 11 0 7 -10 5 -25 -5 -13 -9 -27 -16 -30 -16 -11 0 -4 29 11 44 8 9
11 16 6 16 -5 0 -16 -10 -24 -22z"/>
<path d="M1770 3918 c0 -15 -15 -22 -41 -20 -3 0 -22 -3 -42 -8 -29 -6 -37 -5
-37 6 0 8 -3 14 -8 14 -6 0 -41 -21 -61 -36 -2 -2 2 -10 9 -19 8 -10 17 -12
24 -6 13 11 122 34 151 33 11 -1 78 -3 148 -4 109 -3 130 -6 138 -20 12 -21
39 -12 39 13 0 13 -7 18 -27 18 -16 0 -48 4 -73 8 -26 5 -60 5 -79 0 -29 -7
-37 -6 -48 9 -7 10 -13 13 -13 7 0 -16 -60 -9 -71 8 -7 11 -9 11 -9 -3z"/>
<path d="M2808 3799 c0 -41 -2 -86 -2 -102 -1 -15 3 -26 8 -24 10 3 10 187 0
196 -2 2 -5 -29 -6 -70z"/>
<path d="M2966 3843 c-13 -13 -20 -15 -23 -5 -8 21 -19 13 -19 -13 0 -14 2
-25 6 -25 10 1 74 60 64 60 -5 0 -18 -8 -28 -17z"/>
<path d="M325 3840 c-3 -5 -4 -10 0 -10 3 0 0 -10 -7 -22 -7 -13 -13 -26 -14
-30 -1 -5 -3 -10 -4 -13 -1 -3 -3 -10 -4 -15 0 -6 -8 -15 -16 -20 -8 -5 -11
-10 -6 -10 5 0 3 -7 -4 -15 -7 -8 -9 -15 -5 -15 4 0 1 -7 -6 -17 -13 -15 -12
-15 9 -4 19 10 27 28 23 54 0 4 3 7 8 7 9 0 51 90 51 109 0 14 -17 14 -25 1z"/>
<path d="M1626 3755 c21 -19 44 -35 49 -35 6 0 21 -9 35 -20 14 -11 35 -20 47
-20 12 0 25 -5 28 -10 4 -7 35 -9 80 -6 82 5 155 37 188 82 27 37 14 40 -20 5
-58 -58 -222 -57 -346 2 -98 46 -111 47 -61 2z"/>
<path d="M2481 3781 c-11 -7 -13 -27 -8 -93 3 -45 12 -98 19 -115 11 -29 17
-33 50 -33 21 0 38 5 38 10 0 6 -11 10 -24 10 -16 0 -27 7 -31 20 -4 11 -10
18 -14 15 -8 -4 -21 88 -21 146 0 26 2 27 30 19 37 -11 48 3 14 19 -30 13 -35
13 -53 2z"/>
<path d="M2934 3779 c-3 -6 -15 -9 -25 -6 -10 3 -22 1 -25 -4 -3 -5 11 -9 30
-9 25 0 36 4 36 15 0 18 -6 19 -16 4z"/>
<path d="M2600 3755 c-7 -8 -17 -12 -22 -9 -6 4 -8 -1 -5 -12 9 -29 31 -138
32 -151 0 -6 3 -15 7 -18 4 -4 4 13 2 37 -3 23 -6 57 -7 75 -1 17 -5 34 -9 38
-7 8 12 45 24 45 4 0 9 -12 11 -27 5 -28 5 -28 3 1 -1 34 -17 43 -36 21z"/>
<path d="M2957 3743 c-10 -10 -8 -56 3 -73 7 -11 10 -5 10 23 0 26 4 37 15 37
8 0 15 5 15 10 0 11 -33 14 -43 3z"/>
<path d="M249 3639 c-13 -11 -17 -17 -9 -13 12 5 12 4 3 -6 -6 -7 -9 -19 -5
-28 4 -12 1 -14 -13 -8 -11 4 -16 4 -12 0 4 -4 2 -13 -4 -21 -6 -7 -8 -13 -4
-13 4 0 1 -8 -6 -17 -12 -15 -12 -16 1 -8 12 7 12 5 -1 -11 -9 -10 -15 -27
-14 -36 2 -10 -2 -21 -7 -25 -7 -4 -8 -1 -3 7 6 9 4 11 -4 6 -7 -5 -10 -11 -7
-14 3 -3 -2 -15 -11 -26 -17 -20 -17 -20 2 -6 11 8 2 -6 -20 -30 -22 -25 -28
-35 -14 -22 30 26 49 29 27 5 -8 -10 -14 -28 -13 -40 1 -12 -1 -20 -5 -18 -3
2 -12 -1 -20 -7 -12 -8 -11 -8 5 -3 18 6 18 4 -3 -18 -24 -25 -29 -43 -10 -30
7 4 -3 -13 -22 -37 -19 -25 -27 -39 -18 -32 15 12 17 10 14 -15 -1 -15 -7 -27
-12 -26 -5 1 -10 -7 -10 -17 0 -10 5 -16 11 -12 5 3 4 -2 -3 -11 -8 -9 -11
-20 -8 -25 3 -5 -4 -18 -15 -28 -12 -11 -23 -17 -24 -14 -2 3 -7 1 -12 -4 -5
-5 -3 -6 4 -2 16 9 17 -6 2 -21 -6 -6 -9 -20 -7 -32 3 -19 6 -18 32 16 19 23
37 67 52 122 12 47 34 118 48 156 13 39 32 90 41 115 26 73 65 173 76 195 6
12 11 27 12 35 2 8 6 21 10 28 12 18 2 15 -24 -9z"/>
<path d="M2935 3645 c-5 -2 -22 -6 -37 -9 -18 -4 -28 -13 -28 -24 0 -9 -9 -23
-19 -29 -11 -7 -21 -23 -23 -35 -2 -18 -11 -24 -37 -28 -19 -3 -36 -12 -38
-20 -3 -10 -2 -11 4 -4 4 7 21 12 36 12 16 0 34 8 42 18 18 25 23 10 28 -71 2
-44 4 -36 5 33 2 101 14 121 52 87 10 -9 25 -15 32 -13 8 3 -1 12 -20 22 -27
14 -31 20 -21 32 6 8 18 14 25 14 8 0 14 5 14 10 0 6 -1 10 -2 9 -2 0 -7 -2
-13 -4z"/>
<path d="M2601 3538 c-1 -14 -10 -18 -43 -18 -23 0 -38 -3 -34 -7 4 -5 24 -8
43 -8 l36 0 -2 -86 -2 -86 71 -149 c86 -178 245 -493 294 -584 35 -64 36 -64
36 -30 0 19 -9 50 -20 68 -24 39 -25 58 -4 70 13 7 9 11 -20 16 -35 7 -48 27
-26 41 20 13 9 21 -22 18 -31 -4 -32 -3 -14 11 11 9 26 16 34 16 12 0 12 3 2
16 -12 13 -15 13 -28 0 -13 -13 -17 -12 -33 7 -12 16 -14 26 -7 35 12 14 -6
43 -24 39 -6 -1 -13 4 -16 12 -2 8 0 11 6 7 6 -3 12 -2 14 3 5 13 48 24 48 12
0 -5 -4 -13 -10 -16 -5 -3 -10 -11 -10 -18 0 -6 7 -1 16 12 21 30 7 45 -30 31
-46 -17 -62 -13 -36 10 13 11 30 21 39 22 9 0 22 2 29 2 7 1 17 8 22 15 7 12
11 12 24 2 13 -11 18 -10 32 3 8 9 21 13 27 10 9 -5 8 -3 0 6 -9 10 -15 10
-26 1 -8 -6 -22 -9 -31 -5 -9 3 -22 2 -29 -3 -10 -8 -102 -43 -113 -43 -2 0
-1 7 2 15 3 7 27 22 52 31 26 10 50 22 53 27 4 5 18 7 32 3 15 -3 29 -1 32 5
4 6 14 8 22 5 8 -3 11 -1 8 4 -8 13 -78 13 -90 1 -6 -5 -34 -19 -64 -31 -39
-15 -56 -18 -61 -9 -10 15 0 50 11 43 5 -3 9 0 9 7 0 6 -8 9 -19 6 -12 -3 -22
1 -25 10 -3 8 -10 12 -15 9 -13 -8 -21 18 -14 45 5 16 3 20 -6 14 -10 -6 -12
1 -7 26 3 19 3 28 0 22 -8 -19 -27 -16 -20 3 7 17 -14 63 -41 89 -20 20 -37
135 -22 150 11 11 12 45 0 45 -4 0 -13 15 -19 33 -5 17 -10 24 -11 15z"/>
<path d="M2954 3475 c-6 -25 -7 -45 -2 -45 4 0 8 3 9 8 1 15 7 40 14 61 3 11
3 21 -2 21 -5 0 -13 -20 -19 -45z"/>
<path d="M2251 3412 c1 -34 8 -70 15 -80 8 -9 14 -25 14 -34 0 -25 20 -23 20
2 0 10 -7 23 -15 28 -11 6 -16 25 -16 64 -1 30 -5 61 -10 69 -6 9 -9 -8 -8
-49z"/>
<path d="M2778 3439 c17 -18 15 -54 -3 -73 -17 -16 -20 -36 -6 -36 13 0 42 77
35 94 -3 8 -13 17 -22 21 -14 5 -15 4 -4 -6z"/>
<path d="M2679 3384 c-2 -63 1 -78 13 -85 6 -4 8 -16 5 -28 -3 -12 -2 -21 3
-21 4 0 10 9 13 20 10 38 30 23 24 -17 -5 -26 -3 -33 3 -23 8 12 10 10 10 -10
0 -15 -5 -31 -11 -37 -12 -12 -4 -33 13 -33 6 0 8 9 5 19 -3 11 1 29 9 39 12
17 12 21 -1 26 -9 3 -15 18 -15 36 0 23 -4 30 -19 30 -26 0 -33 13 -36 72 -4
66 -15 74 -16 12z"/>
<path d="M244 3313 c-10 -15 -21 -30 -24 -33 -15 -14 -64 -104 -53 -97 16 10
106 147 100 153 -3 3 -14 -7 -23 -23z"/>
<path d="M2803 3323 c-7 -3 -13 -11 -13 -19 0 -8 -8 -14 -17 -14 -17 -1 -17
-1 0 -11 9 -5 17 -19 17 -29 0 -11 5 -20 11 -20 7 0 9 11 6 29 -3 15 -1 33 5
39 13 13 7 30 -9 25z"/>
<path d="M1567 3293 c-4 -3 -7 -27 -7 -52 0 -24 -5 -71 -12 -103 -13 -63 1
-184 28 -243 14 -30 14 -30 8 15 -4 25 -10 53 -15 62 -10 19 -11 139 -1 251 4
42 7 77 6 77 0 0 -4 -3 -7 -7z"/>
<path d="M2918 3177 c-3 -15 -2 -24 3 -22 4 3 17 -7 28 -21 12 -15 21 -22 21
-16 0 6 3 18 6 26 5 12 2 15 -9 10 -10 -4 -20 4 -30 22 l-14 27 -5 -26z"/>
<path d="M2804 3162 c-11 -10 -21 -25 -21 -35 0 -26 10 -20 29 18 10 19 17 35
15 35 -1 -1 -11 -9 -23 -18z"/>
<path d="M2970 2979 c0 -6 -10 -10 -22 -9 -39 4 -44 0 -18 -13 21 -11 27 -10
42 5 20 20 22 28 8 28 -5 0 -10 -5 -10 -11z"/>
<path d="M619 2178 c-1 -17 -8 -65 -14 -100 -2 -16 -1 -28 3 -28 11 0 30 130
20 136 -4 3 -8 -1 -9 -8z"/>
<path d="M2282 1775 c0 -22 4 -53 8 -70 7 -26 8 -23 8 20 0 28 -3 59 -8 70 -7
15 -8 11 -8 -20z"/>
<path d="M2988 300 c-4 -30 -10 -75 -13 -100 l-5 -45 15 45 c9 25 14 70 13
100 l-3 55 -7 -55z"/>
<path d="M2961 37 c-30 -15 -39 -37 -14 -37 22 1 53 23 53 39 0 14 -9 14 -39
-2z"/>
</g>
</svg>
